# xmcd
#
# Track frame offsets: 
#        150
#        13839
#        30015
#        50527
#        75393
#        88546
#        120983
#        137432
#        159516
#        174014
#        189397
#
# Disc length: 2981 seconds
#
# Revision: 0
# Processed by: cddbd v1.5.1PL0 Copyright (c) Steve Scherf et al.
# Submitted via: ExactAudioCopy v0.95a5
#
DISCID=6c0ba30b
DTITLE=J+R Unplugged Music Duo - 2 Switch On
DYEAR=2000
DGENRE=Blues
TTITLE0=no chance
TTITLE1=i`d lie to you for your love
TTITLE2=when my baby
TTITLE3=big blue dolphins
TTITLE4=20 ways
TTITLE5=r&b medley
TTITLE6=too much to think about
TTITLE7=some where, some time, some how
TTITLE8=zippo
TTITLE9=travelling
TTITLE10=petty medley
EXTD=
EXTT0=
EXTT1=
EXTT2=
EXTT3=
EXTT4=
EXTT5=
EXTT6=
EXTT7=
EXTT8=
EXTT9=
EXTT10=
PLAYORDER=
